<?xml version="1.0" standalone="no"?>
<!DOCTYPE svg PUBLIC "-//W3C//DTD SVG 20010904//EN"
 "http://www.w3.org/TR/2001/REC-SVG-20010904/DTD/svg10.dtd">
<svg version="1.0" xmlns="http://www.w3.org/2000/svg"
 width="512.000000pt" height="512.000000pt" viewBox="0 0 512.000000 512.000000"
 preserveAspectRatio="xMidYMid meet">

<g transform="translate(0.000000,512.000000) scale(0.100000,-0.100000)"
fill="#000000" stroke="none">
<path d="M4320 4800 l0 -160 80 0 80 0 0 160 0 160 -80 0 -80 0 0 -160z"/>
<path d="M4622 4737 l-112 -112 55 -55 55 -55 113 113 112 112 -55 55 -55 55
-113 -113z"/>
<path d="M4002 4787 l-52 -52 113 -113 112 -112 55 55 54 55 -109 110 c-60 61
-112 110 -115 110 -3 0 -29 -24 -58 -53z"/>
<path d="M4040 4465 c-210 -42 -342 -158 -406 -359 -21 -64 -27 -109 -31 -213
l-6 -133 -158 0 -159 0 0 -154 0 -154 -27 -7 c-16 -3 -69 -26 -118 -49 -369
-174 -626 -502 -711 -908 -19 -92 -25 -317 -11 -430 7 -54 6 -68 -5 -68 -7 0
-62 25 -123 55 -196 98 -431 138 -601 100 -143 -31 -320 -116 -479 -230 -42
-30 -78 -55 -81 -55 -2 0 -4 50 -4 110 l0 110 -480 0 -480 0 0 -960 0 -960
480 0 480 0 0 230 c0 197 2 230 15 230 8 0 347 -50 752 -110 l738 -111 455 3
c429 3 460 5 545 26 50 12 229 49 400 82 353 69 328 59 660 244 122 67 224
131 243 151 28 30 32 42 32 89 0 69 -32 171 -69 223 -65 90 -166 103 -373 47
-9 -3 15 26 53 63 184 176 311 410 365 668 26 123 26 375 0 495 -68 319 -244
592 -501 782 -82 61 -245 148 -315 169 l-40 12 0 154 0 153 -165 0 -165 0 0
98 c1 252 97 401 290 446 36 9 80 16 98 16 l32 0 0 80 0 80 -32 -1 c-18 0 -62
-7 -98 -14z m-120 -915 l0 -51 -62 8 c-35 4 -115 8 -178 8 -63 0 -143 -4 -177
-8 l-63 -8 0 51 0 50 240 0 240 0 0 -50z m-14 -214 c445 -96 779 -436 876
-891 16 -78 16 -333 0 -410 -76 -352 -291 -637 -597 -792 -104 -53 -162 -70
-298 -89 -177 -24 -343 -16 -512 26 -71 17 -150 40 -175 51 -44 20 -203 119
-198 124 2 2 66 20 143 40 158 42 199 60 260 116 l44 40 52 -15 c29 -9 63 -16
76 -16 22 0 23 -3 23 -80 l0 -80 80 0 80 0 0 78 0 78 65 11 c89 15 150 47 216
112 65 66 97 127 112 216 38 222 -117 431 -342 461 l-51 7 0 240 0 240 43 -7
c95 -16 179 -98 193 -192 l6 -44 79 0 c91 0 91 0 64 104 -41 157 -171 270
-334 292 l-51 7 0 78 0 79 -80 0 -80 0 0 -78 0 -78 -65 -11 c-85 -15 -148 -46
-211 -105 -164 -154 -163 -427 3 -578 65 -59 124 -89 208 -103 l65 -11 0 -238
c0 -265 4 -252 -68 -227 -30 10 -30 11 -25 63 4 37 1 61 -10 83 -22 42 -71 81
-110 87 -18 3 -203 15 -411 26 -256 14 -382 24 -387 32 -16 25 -32 217 -26
313 13 222 80 413 208 595 164 232 437 405 709 450 41 6 82 13 90 15 35 9 271
-5 336 -19z m-306 -777 l0 -242 -42 7 c-63 10 -128 54 -163 110 -26 44 -30 58
-30 125 0 65 4 83 28 123 39 66 117 116 185 118 l22 0 0 -241z m290 -437 c26
-16 57 -48 75 -76 27 -44 30 -58 30 -126 0 -68 -3 -82 -30 -126 -35 -56 -100
-100 -162 -110 l-43 -7 0 243 0 243 43 -7 c23 -4 62 -19 87 -34z m-1827 -166
c48 -14 127 -46 176 -70 139 -70 161 -74 631 -96 233 -11 436 -20 452 -20 28
0 29 -1 22 -37 -8 -49 -42 -109 -71 -128 -12 -8 -204 -65 -425 -126 -222 -61
-454 -124 -516 -141 -61 -17 -111 -33 -109 -34 8 -8 1176 -296 1254 -309 207
-36 625 3 1004 95 114 27 220 50 236 50 38 0 57 -22 76 -87 l16 -52 -237 -134
c-130 -74 -257 -142 -282 -150 -25 -9 -200 -47 -390 -84 l-345 -67 -460 -1
-460 0 -275 43 c-151 24 -381 58 -510 77 -129 19 -342 50 -473 70 -131 19
-242 35 -248 35 -5 0 -9 166 -9 425 l0 425 68 56 c148 122 332 229 471 271
104 32 273 27 404 -11z m-1103 -836 l0 -800 -320 0 -320 0 0 800 0 800 320 0
320 0 0 -800z"/>
<path d="M559 1827 c-57 -21 -97 -54 -126 -105 -24 -40 -28 -58 -28 -123 0
-67 4 -81 30 -125 19 -30 49 -60 79 -79 44 -27 58 -30 126 -30 68 0 82 3 126
30 30 19 60 49 79 79 27 44 30 58 30 126 0 68 -3 82 -30 126 -42 68 -105 105
-187 110 -38 3 -77 -1 -99 -9z m136 -172 c16 -15 25 -36 25 -55 0 -19 -9 -40
-25 -55 -49 -50 -135 -15 -135 55 0 41 39 80 80 80 19 0 40 -9 55 -25z"/>
<path d="M4640 4400 l0 -80 160 0 160 0 0 80 0 80 -160 0 -160 0 0 -80z"/>
<path d="M4570 4235 l-55 -55 113 -113 112 -112 55 55 55 55 -113 113 -112
112 -55 -55z"/>
<path d="M4065 4170 l-109 -110 54 -55 55 -55 112 112 113 113 -52 52 c-29 29
-55 53 -58 53 -3 0 -55 -49 -115 -110z"/>
<path d="M4320 4000 l0 -160 80 0 80 0 0 160 0 160 -80 0 -80 0 0 -160z"/>
</g>
</svg>
