<?xml version="1.0" standalone="no"?>
<!DOCTYPE svg PUBLIC "-//W3C//DTD SVG 20010904//EN"
 "http://www.w3.org/TR/2001/REC-SVG-20010904/DTD/svg10.dtd">
<svg version="1.0" xmlns="http://www.w3.org/2000/svg"
 width="512.000000pt" height="512.000000pt" viewBox="0 0 512.000000 512.000000"
 preserveAspectRatio="xMidYMid meet">

<g transform="translate(0.000000,512.000000) scale(0.100000,-0.100000)"
fill="#000000" stroke="none">
<path d="M1440 4080 l0 -880 320 0 320 0 0 880 0 880 -320 0 -320 0 0 -880z
m480 0 l0 -720 -160 0 -160 0 0 720 0 720 160 0 160 0 0 -720z"/>
<path d="M3840 4080 l0 -880 320 0 320 0 0 880 0 880 -320 0 -320 0 0 -880z
m480 0 l0 -720 -160 0 -160 0 0 720 0 720 160 0 160 0 0 -720z"/>
<path d="M2240 4000 l0 -800 320 0 320 0 0 800 0 800 -320 0 -320 0 0 -800z
m480 0 l0 -640 -160 0 -160 0 0 640 0 640 160 0 160 0 0 -640z"/>
<path d="M3040 3880 l0 -680 320 0 320 0 0 680 0 680 -320 0 -320 0 0 -680z
m480 0 l0 -520 -160 0 -160 0 0 520 0 520 160 0 160 0 0 -520z"/>
<path d="M640 3760 l0 -560 320 0 320 0 0 560 0 560 -320 0 -320 0 0 -560z
m480 0 l0 -400 -160 0 -160 0 0 400 0 400 160 0 160 0 0 -400z"/>
<path d="M480 2800 l0 -240 2080 0 2080 0 0 240 0 240 -2080 0 -2080 0 0 -240z
m4000 0 l0 -80 -1920 0 -1920 0 0 80 0 80 1920 0 1920 0 0 -80z"/>
<path d="M4695 2458 c-16 -6 -44 -21 -62 -34 -17 -13 -140 -174 -271 -357
-156 -215 -251 -338 -271 -350 -29 -17 -254 -97 -273 -97 -4 0 27 69 69 154
68 138 76 160 75 210 -1 116 -89 201 -207 201 -39 -1 -73 -7 -95 -19 -19 -11
-105 -88 -190 -172 -140 -140 -157 -154 -190 -154 -53 0 -161 -26 -213 -50
-181 -85 -267 -318 -267 -721 l0 -109 -80 0 -80 0 0 -240 0 -240 40 0 40 0 0
-160 0 -160 480 0 480 0 0 160 0 160 40 0 40 0 2 187 3 187 302 112 c165 61
321 123 345 137 62 36 162 146 198 217 39 78 350 834 363 883 7 27 6 54 -2 92
-28 124 -161 203 -276 163z m115 -178 c11 -11 20 -27 20 -35 0 -20 -334 -808
-365 -860 -30 -51 -110 -127 -164 -154 -22 -12 -193 -78 -378 -146 l-338 -125
-309 0 -309 0 6 178 c13 390 79 506 304 532 45 5 98 16 120 25 24 10 96 73
194 170 117 116 162 155 180 155 29 0 49 -17 49 -42 0 -10 -68 -154 -151 -319
-82 -166 -148 -303 -146 -306 7 -7 584 176 632 200 77 39 107 72 282 316 293
407 311 431 333 431 11 0 29 -9 40 -20z m-1210 -1560 l0 -80 -400 0 -400 0 0
80 0 80 400 0 400 0 0 -80z m-80 -320 l0 -80 -320 0 -320 0 0 80 0 80 320 0
320 0 0 -80z"/>
<path d="M275 2447 c-86 -39 -138 -118 -138 -207 0 -49 21 -104 187 -494 192
-452 217 -499 305 -578 73 -66 132 -94 441 -208 l285 -106 3 -187 2 -187 40 0
40 0 0 -160 0 -160 480 0 480 0 0 160 0 160 40 0 40 0 0 240 0 240 -85 0 -85
0 0 120 c0 214 -30 398 -84 516 -31 67 -101 143 -165 178 -54 29 -161 56 -225
56 -36 0 -48 9 -205 163 -174 170 -199 187 -283 187 -52 0 -131 -44 -164 -91
-22 -32 -29 -56 -32 -103 -4 -61 -2 -66 73 -215 42 -84 74 -155 72 -157 -5 -5
-225 69 -264 89 -42 22 -57 41 -309 391 -118 165 -223 306 -232 313 -59 47
-161 65 -217 40z m107 -149 c9 -7 116 -152 238 -323 122 -170 234 -323 248
-338 56 -59 118 -86 419 -181 167 -53 307 -96 313 -96 5 0 -60 140 -145 310
-166 332 -169 341 -109 356 23 6 43 -11 182 -149 168 -167 212 -196 292 -197
65 0 159 -27 197 -56 92 -70 143 -269 143 -560 l0 -104 -312 0 -311 0 -366
141 c-201 77 -382 152 -401 166 -42 31 -85 78 -106 116 -37 68 -364 852 -364
873 0 22 33 54 55 54 6 0 18 -6 27 -12z m1938 -1578 l0 -80 -400 0 -400 0 0
80 0 80 400 0 400 0 0 -80z m-80 -320 l0 -80 -320 0 -320 0 0 80 0 80 320 0
320 0 0 -80z"/>
</g>
</svg>
