<?xml version="1.0" standalone="no"?>
<!DOCTYPE svg PUBLIC "-//W3C//DTD SVG 20010904//EN"
 "http://www.w3.org/TR/2001/REC-SVG-20010904/DTD/svg10.dtd">
<svg version="1.0" xmlns="http://www.w3.org/2000/svg"
 width="512.000000pt" height="512.000000pt" viewBox="0 0 512.000000 512.000000"
 preserveAspectRatio="xMidYMid meet">

<g transform="translate(0.000000,512.000000) scale(0.100000,-0.100000)"
fill="#000000" stroke="none">
<path d="M319 4946 c-56 -20 -96 -53 -126 -104 l-28 -47 0 -1916 0 -1916 30
-49 c19 -30 49 -60 79 -79 l49 -30 1199 -3 1198 -2 0 -345 0 -345 360 180 360
180 360 -180 360 -180 0 574 0 575 48 6 c136 17 222 58 317 149 96 94 145 206
145 337 0 72 -27 173 -60 227 -19 30 -19 33 -3 38 80 26 166 79 219 136 176
191 176 465 0 655 -59 64 -162 126 -230 139 l-34 6 28 56 c88 178 57 375 -81
526 -67 73 -120 109 -200 136 -116 40 -286 24 -375 -35 -22 -14 -23 -13 -35
23 -31 96 -126 226 -193 261 l-25 14 -3 432 -3 432 -30 49 c-19 30 -49 60 -79
79 l-49 30 -1581 2 c-1275 2 -1588 0 -1617 -11z m3176 -171 l25 -24 0 -378 0
-378 -59 3 c-131 8 -257 -43 -357 -142 -64 -64 -117 -155 -130 -221 l-5 -31
-67 33 c-81 40 -168 57 -242 49 -30 -4 -533 -6 -1117 -6 l-1063 0 0 -80 0 -80
925 0 926 0 -31 -45 c-17 -25 -38 -61 -46 -80 l-14 -35 -160 0 -160 0 0 -80 0
-80 150 0 150 0 0 -33 c0 -19 6 -55 14 -80 l14 -47 -884 0 -884 0 0 -80 0 -80
826 0 826 0 -49 -44 c-27 -25 -60 -61 -74 -80 l-24 -36 -192 0 -193 0 0 -80 0
-80 163 0 162 0 0 -80 0 -80 -722 0 -723 0 0 -80 0 -80 753 0 752 0 24 -36
c14 -19 47 -55 74 -80 l49 -44 -106 0 -106 0 0 -80 0 -80 170 0 c168 0 171 0
160 -20 -6 -11 -14 -46 -18 -78 l-7 -57 -873 -3 -872 -2 0 -80 0 -80 884 0
c849 0 885 -1 890 -18 4 -10 22 -45 41 -77 19 -31 35 -59 35 -61 0 -2 -92 -4
-205 -4 l-205 0 0 -79 0 -79 373 -5 c204 -3 384 -8 400 -12 l27 -7 0 -149 0
-149 -1175 0 -1176 0 -24 25 -25 24 0 1871 0 1871 25 24 24 25 1551 0 1551 0
24 -25z m96 -976 c100 -54 156 -141 166 -262 6 -66 5 -70 -13 -63 -75 29 -159
40 -304 40 -145 0 -229 -11 -304 -40 -18 -7 -19 -3 -13 63 10 117 65 207 158
258 71 38 102 45 182 40 51 -3 81 -11 128 -36z m720 -301 c113 -52 181 -152
187 -276 4 -65 1 -79 -26 -135 -27 -55 -96 -138 -105 -126 -2 2 -30 44 -62 93
-74 113 -178 217 -291 291 -49 32 -91 60 -93 62 -7 5 33 45 70 69 93 59 221
68 320 22z m-1490 -5 c43 -19 119 -78 119 -92 0 -3 -36 -30 -81 -60 -108 -71
-214 -179 -290 -296 -35 -52 -66 -95 -69 -95 -3 0 -25 19 -48 41 -162 161 -98
433 121 511 68 24 183 20 248 -9z m840 -162 c307 -80 546 -317 631 -627 30
-112 31 -335 0 -445 -85 -311 -319 -546 -628 -631 -113 -31 -335 -31 -448 0
-309 85 -543 320 -628 631 -30 109 -30 333 0 442 91 335 354 580 690 644 102
19 282 13 383 -14z m-1216 -548 c-54 -142 -54 -465 1 -607 7 -18 3 -19 -63
-13 -122 10 -208 65 -264 169 -31 58 -34 70 -33 148 0 72 4 93 26 136 38 73
69 106 129 139 62 33 96 43 163 44 42 1 47 -1 41 -16z m2186 -24 c67 -36 98
-68 137 -143 22 -43 26 -64 26 -136 0 -73 -4 -92 -27 -137 -56 -108 -149 -170
-270 -180 -66 -6 -70 -5 -63 13 55 143 55 465 0 608 -7 18 -3 19 64 13 54 -4
87 -14 133 -38z m-218 -788 c116 -102 128 -300 26 -424 -115 -140 -350 -154
-473 -28 l-37 38 87 59 c112 74 224 187 294 297 30 47 58 86 62 87 4 0 22 -13
41 -29z m-1837 -67 c74 -112 178 -216 290 -289 49 -32 91 -60 93 -62 12 -9
-61 -68 -119 -96 -56 -28 -75 -32 -145 -32 -67 0 -89 5 -137 28 -70 34 -140
110 -162 174 -25 72 -21 167 10 233 23 50 88 130 105 130 4 0 33 -39 65 -86z
m644 -442 c129 -32 413 -19 524 24 18 7 19 3 13 -63 -10 -121 -72 -214 -180
-270 -45 -23 -64 -27 -137 -27 -72 0 -93 4 -136 26 -75 39 -107 70 -143 137
-24 46 -34 79 -38 133 -6 67 -5 71 13 64 10 -4 48 -15 84 -24z m-209 -230 c39
-86 135 -182 223 -223 266 -124 574 12 666 294 6 21 15 37 18 35 4 -2 24 -12
45 -23 l37 -19 0 -463 0 -463 -280 140 -280 140 -280 -140 -280 -140 0 463 0
463 43 21 42 21 9 -22 c5 -11 22 -49 37 -84z"/>
<path d="M480 4560 l0 -80 720 0 720 0 0 80 0 80 -720 0 -720 0 0 -80z"/>
<path d="M2080 4560 l0 -80 560 0 560 0 0 80 0 80 -560 0 -560 0 0 -80z"/>
<path d="M480 4240 l0 -80 1440 0 1440 0 0 80 0 80 -1440 0 -1440 0 0 -80z"/>
<path d="M480 3920 l0 -80 560 0 560 0 0 80 0 80 -560 0 -560 0 0 -80z"/>
<path d="M1760 3920 l0 -80 560 0 560 0 0 80 0 80 -560 0 -560 0 0 -80z"/>
<path d="M480 3280 l0 -80 640 0 640 0 0 80 0 80 -640 0 -640 0 0 -80z"/>
<path d="M480 2640 l0 -80 480 0 480 0 0 80 0 80 -480 0 -480 0 0 -80z"/>
<path d="M480 2000 l0 -80 640 0 640 0 0 80 0 80 -640 0 -640 0 0 -80z"/>
<path d="M480 1360 l0 -80 640 0 640 0 0 80 0 80 -640 0 -640 0 0 -80z"/>
<path d="M3360 3121 l0 -79 -47 -7 c-60 -8 -156 -59 -189 -98 -14 -16 -37 -53
-52 -81 -22 -43 -26 -64 -26 -136 -1 -78 2 -90 33 -148 19 -35 48 -74 64 -88
45 -38 117 -71 170 -79 l47 -7 0 -159 c0 -176 1 -172 -64 -145 -40 17 -83 71
-92 114 l-6 32 -80 0 -80 0 7 -47 c8 -60 59 -156 98 -189 45 -38 117 -71 170
-79 l47 -7 0 -79 0 -79 80 0 80 0 0 79 0 79 47 7 c100 15 190 82 240 178 23
44 27 64 27 137 1 78 -2 90 -33 148 -19 35 -48 74 -64 88 -45 38 -117 71 -170
79 l-47 7 0 160 0 161 32 -7 c52 -10 101 -56 118 -109 l15 -47 79 0 78 0 -7
48 c-8 59 -59 155 -98 188 -45 38 -117 71 -170 79 l-47 7 0 79 0 79 -80 0 -80
0 0 -79z m0 -401 c0 -177 1 -173 -64 -146 -40 17 -83 71 -92 114 -14 71 26
150 91 178 66 29 65 31 65 -146z m258 -356 c105 -81 65 -255 -65 -280 l-33 -6
0 162 0 163 32 -7 c17 -3 47 -18 66 -32z"/>
</g>
</svg>
